<?xml version="1.0" encoding="UTF-8" standalone="no"?>
<!DOCTYPE svg PUBLIC "-//W3C//DTD SVG 1.1//EN"
 "http://www.w3.org/Graphics/SVG/1.1/DTD/svg11.dtd">
<!-- Generated by graphviz version 2.43.0 (0)
 -->
<!-- Title: XtremeWorldSiteMap_Hierarchical Pages: 1 -->
<svg width="1059pt" height="404pt"
 viewBox="0.00 0.00 1059.00 404.00" xmlns="http://www.w3.org/2000/svg" xmlns:xlink="http://www.w3.org/1999/xlink">
<g id="graph0" class="graph" transform="scale(1 1) rotate(0) translate(4 400)">
<title>XtremeWorldSiteMap_Hierarchical</title>
<polygon fill="#f9f9f9" stroke="transparent" points="-4,4 -4,-400 1055,-400 1055,4 -4,4"/>
<!-- Xtreme_World -->
<g id="node1" class="node">
<title>Xtreme_World</title>
<polygon fill="#002b3d" stroke="black" points="581.5,-396 456.5,-396 456.5,-360 581.5,-360 581.5,-396"/>
<text text-anchor="middle" x="519" y="-374.3" font-family="Helvetica,sans-Serif" font-weight="bold" font-size="14.00" fill="white">Xtreme World</text>
</g>
<!-- Inicio -->
<g id="node2" class="node">
<title>Inicio</title>
<polygon fill="#39b7e1" stroke="black" points="195,-324 141,-324 141,-288 195,-288 195,-324"/>
<text text-anchor="middle" x="168" y="-302.9" font-family="Helvetica,sans-Serif" font-weight="bold" font-size="12.00" fill="#002b3d">Inicio</text>
</g>
<!-- Xtreme_World&#45;&gt;Inicio -->
<g id="edge1" class="edge">
<title>Xtreme_World&#45;&gt;Inicio</title>
<path fill="none" stroke="black" d="M456.38,-368.67C395.29,-359.91 300,-344.54 219,-324 214.33,-322.82 209.46,-321.42 204.68,-319.94"/>
<polygon fill="black" stroke="black" points="205.63,-316.57 195.04,-316.84 203.49,-323.23 205.63,-316.57"/>
</g>
<!-- Atracciones -->
<g id="node7" class="node">
<title>Atracciones</title>
<polygon fill="#39b7e1" stroke="black" points="323.5,-324 228.5,-324 228.5,-288 323.5,-288 323.5,-324"/>
<text text-anchor="middle" x="276" y="-302.9" font-family="Helvetica,sans-Serif" font-weight="bold" font-size="12.00" fill="#002b3d">Atracciones</text>
</g>
<!-- Xtreme_World&#45;&gt;Atracciones -->
<g id="edge6" class="edge">
<title>Xtreme_World&#45;&gt;Atracciones</title>
<path fill="none" stroke="black" d="M459.87,-359.97C421.44,-348.9 371.58,-334.53 333.49,-323.56"/>
<polygon fill="black" stroke="black" points="334.15,-320.11 323.57,-320.7 332.21,-326.83 334.15,-320.11"/>
</g>
<!-- Tickets -->
<g id="node12" class="node">
<title>Tickets</title>
<polygon fill="#39b7e1" stroke="black" points="426.5,-324 361.5,-324 361.5,-288 426.5,-288 426.5,-324"/>
<text text-anchor="middle" x="394" y="-302.9" font-family="Helvetica,sans-Serif" font-weight="bold" font-size="12.00" fill="#002b3d">Tickets</text>
</g>
<!-- Xtreme_World&#45;&gt;Tickets -->
<g id="edge11" class="edge">
<title>Xtreme_World&#45;&gt;Tickets</title>
<path fill="none" stroke="black" d="M488.42,-359.88C471.93,-350.64 451.38,-339.13 433.66,-329.21"/>
<polygon fill="black" stroke="black" points="435.13,-326.02 424.7,-324.19 431.71,-332.13 435.13,-326.02"/>
</g>
<!-- Horarios_y_Eventos -->
<g id="node17" class="node">
<title>Horarios_y_Eventos</title>
<polygon fill="#39b7e1" stroke="black" points="591.5,-324 446.5,-324 446.5,-288 591.5,-288 591.5,-324"/>
<text text-anchor="middle" x="519" y="-302.9" font-family="Helvetica,sans-Serif" font-weight="bold" font-size="12.00" fill="#002b3d">Horarios y Eventos</text>
</g>
<!-- Xtreme_World&#45;&gt;Horarios_y_Eventos -->
<g id="edge16" class="edge">
<title>Xtreme_World&#45;&gt;Horarios_y_Eventos</title>
<path fill="none" stroke="black" d="M519,-359.7C519,-351.98 519,-342.71 519,-334.11"/>
<polygon fill="black" stroke="black" points="522.5,-334.1 519,-324.1 515.5,-334.1 522.5,-334.1"/>
</g>
<!-- Servicios -->
<g id="node22" class="node">
<title>Servicios</title>
<polygon fill="#39b7e1" stroke="black" points="695.5,-324 618.5,-324 618.5,-288 695.5,-288 695.5,-324"/>
<text text-anchor="middle" x="657" y="-302.9" font-family="Helvetica,sans-Serif" font-weight="bold" font-size="12.00" fill="#002b3d">Servicios</text>
</g>
<!-- Xtreme_World&#45;&gt;Servicios -->
<g id="edge21" class="edge">
<title>Xtreme_World&#45;&gt;Servicios</title>
<path fill="none" stroke="black" d="M552.76,-359.88C571.22,-350.51 594.28,-338.81 614.02,-328.8"/>
<polygon fill="black" stroke="black" points="615.78,-331.83 623.11,-324.19 612.61,-325.59 615.78,-331.83"/>
</g>
<!-- Accesibilidad -->
<g id="node27" class="node">
<title>Accesibilidad</title>
<polygon fill="#39b7e1" stroke="black" points="839.5,-324 736.5,-324 736.5,-288 839.5,-288 839.5,-324"/>
<text text-anchor="middle" x="788" y="-302.9" font-family="Helvetica,sans-Serif" font-weight="bold" font-size="12.00" fill="#002b3d">Accesibilidad</text>
</g>
<!-- Xtreme_World&#45;&gt;Accesibilidad -->
<g id="edge26" class="edge">
<title>Xtreme_World&#45;&gt;Accesibilidad</title>
<path fill="none" stroke="black" d="M581.73,-360.68C625.37,-349.32 683.27,-334.25 726.61,-322.97"/>
<polygon fill="black" stroke="black" points="727.67,-326.32 736.46,-320.41 725.9,-319.54 727.67,-326.32"/>
</g>
<!-- Contacto_y_Soporte -->
<g id="node32" class="node">
<title>Contacto_y_Soporte</title>
<polygon fill="#39b7e1" stroke="black" points="1018,-324 870,-324 870,-288 1018,-288 1018,-324"/>
<text text-anchor="middle" x="944" y="-302.9" font-family="Helvetica,sans-Serif" font-weight="bold" font-size="12.00" fill="#002b3d">Contacto y Soporte</text>
</g>
<!-- Xtreme_World&#45;&gt;Contacto_y_Soporte -->
<g id="edge31" class="edge">
<title>Xtreme_World&#45;&gt;Contacto_y_Soporte</title>
<path fill="none" stroke="black" d="M581.51,-367.23C647.72,-356.8 755.3,-339.67 848,-324 851.88,-323.34 855.84,-322.67 859.85,-321.98"/>
<polygon fill="black" stroke="black" points="860.6,-325.4 869.86,-320.25 859.41,-318.5 860.6,-325.4"/>
</g>
<!-- Inicio_func_0 -->
<g id="node3" class="node">
<title>Inicio_func_0</title>
<polygon fill="#ffb800" stroke="black" points="153,-252 57,-252 57,-216 153,-216 153,-252"/>
<text text-anchor="middle" x="105" y="-231.5" font-family="Helvetica,sans-Serif" font-size="10.00" fill="#002b3d">Banner Principal</text>
</g>
<!-- Inicio&#45;&gt;Inicio_func_0 -->
<g id="edge2" class="edge">
<title>Inicio&#45;&gt;Inicio_func_0</title>
<path fill="none" stroke="black" d="M152.43,-287.7C144.8,-279.22 135.48,-268.86 127.12,-259.58"/>
<polygon fill="black" stroke="black" points="129.69,-257.2 120.39,-252.1 124.48,-261.88 129.69,-257.2"/>
</g>
<!-- Inicio_func_1 -->
<g id="node4" class="node">
<title>Inicio_func_1</title>
<polygon fill="#ffb800" stroke="black" points="147,-180 19,-180 19,-144 147,-144 147,-180"/>
<text text-anchor="middle" x="83" y="-159.5" font-family="Helvetica,sans-Serif" font-size="10.00" fill="#002b3d">Descripción del Parque</text>
</g>
<!-- Inicio_func_0&#45;&gt;Inicio_func_1 -->
<g id="edge3" class="edge">
<title>Inicio_func_0&#45;&gt;Inicio_func_1</title>
<path fill="none" stroke="black" d="M99.56,-215.7C97.11,-207.9 94.16,-198.51 91.43,-189.83"/>
<polygon fill="black" stroke="black" points="94.71,-188.59 88.38,-180.1 88.04,-190.69 94.71,-188.59"/>
</g>
<!-- Inicio_func_2 -->
<g id="node5" class="node">
<title>Inicio_func_2</title>
<polygon fill="#ffb800" stroke="black" points="122.5,-108 23.5,-108 23.5,-72 122.5,-72 122.5,-108"/>
<text text-anchor="middle" x="73" y="-87.5" font-family="Helvetica,sans-Serif" font-size="10.00" fill="#002b3d">Historia y Misión</text>
</g>
<!-- Inicio_func_1&#45;&gt;Inicio_func_2 -->
<g id="edge4" class="edge">
<title>Inicio_func_1&#45;&gt;Inicio_func_2</title>
<path fill="none" stroke="black" d="M80.53,-143.7C79.43,-135.98 78.1,-126.71 76.87,-118.11"/>
<polygon fill="black" stroke="black" points="80.32,-117.51 75.44,-108.1 73.39,-118.5 80.32,-117.51"/>
</g>
<!-- Inicio_func_3 -->
<g id="node6" class="node">
<title>Inicio_func_3</title>
<polygon fill="#ffb800" stroke="black" points="134,-36 0,-36 0,0 134,0 134,-36"/>
<text text-anchor="middle" x="67" y="-15.5" font-family="Helvetica,sans-Serif" font-size="10.00" fill="#002b3d">Atracciones Destacadas</text>
</g>
<!-- Inicio_func_2&#45;&gt;Inicio_func_3 -->
<g id="edge5" class="edge">
<title>Inicio_func_2&#45;&gt;Inicio_func_3</title>
<path fill="none" stroke="black" d="M71.52,-71.7C70.86,-63.98 70.06,-54.71 69.32,-46.11"/>
<polygon fill="black" stroke="black" points="72.81,-45.77 68.47,-36.1 65.83,-46.37 72.81,-45.77"/>
</g>
<!-- Atracciones_func_0 -->
<g id="node8" class="node">
<title>Atracciones_func_0</title>
<polygon fill="#ffb800" stroke="black" points="316.5,-252 201.5,-252 201.5,-216 316.5,-216 316.5,-252"/>
<text text-anchor="middle" x="259" y="-231.5" font-family="Helvetica,sans-Serif" font-size="10.00" fill="#002b3d">Lista de Atracciones</text>
</g>
<!-- Atracciones&#45;&gt;Atracciones_func_0 -->
<g id="edge7" class="edge">
<title>Atracciones&#45;&gt;Atracciones_func_0</title>
<path fill="none" stroke="black" d="M271.8,-287.7C269.9,-279.9 267.62,-270.51 265.52,-261.83"/>
<polygon fill="black" stroke="black" points="268.92,-261 263.15,-252.1 262.11,-262.65 268.92,-261"/>
</g>
<!-- Atracciones_func_1 -->
<g id="node9" class="node">
<title>Atracciones_func_1</title>
<polygon fill="#ffb800" stroke="black" points="319.5,-180 170.5,-180 170.5,-144 319.5,-144 319.5,-180"/>
<text text-anchor="middle" x="245" y="-159.5" font-family="Helvetica,sans-Serif" font-size="10.00" fill="#002b3d">Actividades y Espectáculos</text>
</g>
<!-- Atracciones_func_0&#45;&gt;Atracciones_func_1 -->
<g id="edge8" class="edge">
<title>Atracciones_func_0&#45;&gt;Atracciones_func_1</title>
<path fill="none" stroke="black" d="M255.54,-215.7C254,-207.98 252.14,-198.71 250.42,-190.11"/>
<polygon fill="black" stroke="black" points="253.81,-189.22 248.42,-180.1 246.95,-190.6 253.81,-189.22"/>
</g>
<!-- Atracciones_func_2 -->
<g id="node10" class="node">
<title>Atracciones_func_2</title>
<polygon fill="#ffb800" stroke="black" points="299,-108 189,-108 189,-72 299,-72 299,-108"/>
<text text-anchor="middle" x="244" y="-87.5" font-family="Helvetica,sans-Serif" font-size="10.00" fill="#002b3d">Galería Multimedia</text>
</g>
<!-- Atracciones_func_1&#45;&gt;Atracciones_func_2 -->
<g id="edge9" class="edge">
<title>Atracciones_func_1&#45;&gt;Atracciones_func_2</title>
<path fill="none" stroke="black" d="M244.75,-143.7C244.64,-135.98 244.51,-126.71 244.39,-118.11"/>
<polygon fill="black" stroke="black" points="247.89,-118.05 244.24,-108.1 240.89,-118.15 247.89,-118.05"/>
</g>
<!-- Atracciones_func_3 -->
<g id="node11" class="node">
<title>Atracciones_func_3</title>
<polygon fill="#ffb800" stroke="black" points="335.5,-36 152.5,-36 152.5,0 335.5,0 335.5,-36"/>
<text text-anchor="middle" x="244" y="-15.5" font-family="Helvetica,sans-Serif" font-size="10.00" fill="#002b3d">Restricciones y Recomendaciones</text>
</g>
<!-- Atracciones_func_2&#45;&gt;Atracciones_func_3 -->
<g id="edge10" class="edge">
<title>Atracciones_func_2&#45;&gt;Atracciones_func_3</title>
<path fill="none" stroke="black" d="M244,-71.7C244,-63.98 244,-54.71 244,-46.11"/>
<polygon fill="black" stroke="black" points="247.5,-46.1 244,-36.1 240.5,-46.1 247.5,-46.1"/>
</g>
<!-- Tickets_func_0 -->
<g id="node13" class="node">
<title>Tickets_func_0</title>
<polygon fill="#ffb800" stroke="black" points="436.5,-252 347.5,-252 347.5,-216 436.5,-216 436.5,-252"/>
<text text-anchor="middle" x="392" y="-231.5" font-family="Helvetica,sans-Serif" font-size="10.00" fill="#002b3d">Compra Online</text>
</g>
<!-- Tickets&#45;&gt;Tickets_func_0 -->
<g id="edge12" class="edge">
<title>Tickets&#45;&gt;Tickets_func_0</title>
<path fill="none" stroke="black" d="M393.51,-287.7C393.29,-279.98 393.02,-270.71 392.77,-262.11"/>
<polygon fill="black" stroke="black" points="396.27,-262 392.49,-252.1 389.28,-262.2 396.27,-262"/>
</g>
<!-- Tickets_func_1 -->
<g id="node14" class="node">
<title>Tickets_func_1</title>
<polygon fill="#ffb800" stroke="black" points="446,-180 338,-180 338,-144 446,-144 446,-180"/>
<text text-anchor="middle" x="392" y="-159.5" font-family="Helvetica,sans-Serif" font-size="10.00" fill="#002b3d">Precios y Paquetes</text>
</g>
<!-- Tickets_func_0&#45;&gt;Tickets_func_1 -->
<g id="edge13" class="edge">
<title>Tickets_func_0&#45;&gt;Tickets_func_1</title>
<path fill="none" stroke="black" d="M392,-215.7C392,-207.98 392,-198.71 392,-190.11"/>
<polygon fill="black" stroke="black" points="395.5,-190.1 392,-180.1 388.5,-190.1 395.5,-190.1"/>
</g>
<!-- Tickets_func_2 -->
<g id="node15" class="node">
<title>Tickets_func_2</title>
<polygon fill="#ffb800" stroke="black" points="466.5,-108 317.5,-108 317.5,-72 466.5,-72 466.5,-108"/>
<text text-anchor="middle" x="392" y="-87.5" font-family="Helvetica,sans-Serif" font-size="10.00" fill="#002b3d">Promociones y Descuentos</text>
</g>
<!-- Tickets_func_1&#45;&gt;Tickets_func_2 -->
<g id="edge14" class="edge">
<title>Tickets_func_1&#45;&gt;Tickets_func_2</title>
<path fill="none" stroke="black" d="M392,-143.7C392,-135.98 392,-126.71 392,-118.11"/>
<polygon fill="black" stroke="black" points="395.5,-118.1 392,-108.1 388.5,-118.1 395.5,-118.1"/>
</g>
<!-- Tickets_func_3 -->
<g id="node16" class="node">
<title>Tickets_func_3</title>
<polygon fill="#ffb800" stroke="black" points="454,-36 354,-36 354,0 454,0 454,-36"/>
<text text-anchor="middle" x="404" y="-15.5" font-family="Helvetica,sans-Serif" font-size="10.00" fill="#002b3d">Métodos de Pago</text>
</g>
<!-- Tickets_func_2&#45;&gt;Tickets_func_3 -->
<g id="edge15" class="edge">
<title>Tickets_func_2&#45;&gt;Tickets_func_3</title>
<path fill="none" stroke="black" d="M394.97,-71.7C396.29,-63.98 397.88,-54.71 399.35,-46.11"/>
<polygon fill="black" stroke="black" points="402.83,-46.55 401.07,-36.1 395.93,-45.37 402.83,-46.55"/>
</g>
<!-- Horarios_y_Eventos_func_0 -->
<g id="node18" class="node">
<title>Horarios_y_Eventos_func_0</title>
<polygon fill="#ffb800" stroke="black" points="583.5,-252 454.5,-252 454.5,-216 583.5,-216 583.5,-252"/>
<text text-anchor="middle" x="519" y="-231.5" font-family="Helvetica,sans-Serif" font-size="10.00" fill="#002b3d">Calendario de Apertura</text>
</g>
<!-- Horarios_y_Eventos&#45;&gt;Horarios_y_Eventos_func_0 -->
<g id="edge17" class="edge">
<title>Horarios_y_Eventos&#45;&gt;Horarios_y_Eventos_func_0</title>
<path fill="none" stroke="black" d="M519,-287.7C519,-279.98 519,-270.71 519,-262.11"/>
<polygon fill="black" stroke="black" points="522.5,-262.1 519,-252.1 515.5,-262.1 522.5,-262.1"/>
</g>
<!-- Horarios_y_Eventos_func_1 -->
<g id="node19" class="node">
<title>Horarios_y_Eventos_func_1</title>
<polygon fill="#ffb800" stroke="black" points="583.5,-180 470.5,-180 470.5,-144 583.5,-144 583.5,-180"/>
<text text-anchor="middle" x="527" y="-159.5" font-family="Helvetica,sans-Serif" font-size="10.00" fill="#002b3d">Horarios Detallados</text>
</g>
<!-- Horarios_y_Eventos_func_0&#45;&gt;Horarios_y_Eventos_func_1 -->
<g id="edge18" class="edge">
<title>Horarios_y_Eventos_func_0&#45;&gt;Horarios_y_Eventos_func_1</title>
<path fill="none" stroke="black" d="M520.98,-215.7C521.86,-207.98 522.92,-198.71 523.9,-190.11"/>
<polygon fill="black" stroke="black" points="527.39,-190.44 525.05,-180.1 520.43,-189.64 527.39,-190.44"/>
</g>
<!-- Horarios_y_Eventos_func_2 -->
<g id="node20" class="node">
<title>Horarios_y_Eventos_func_2</title>
<polygon fill="#ffb800" stroke="black" points="595,-108 485,-108 485,-72 595,-72 595,-108"/>
<text text-anchor="middle" x="540" y="-87.5" font-family="Helvetica,sans-Serif" font-size="10.00" fill="#002b3d">Eventos Especiales</text>
</g>
<!-- Horarios_y_Eventos_func_1&#45;&gt;Horarios_y_Eventos_func_2 -->
<g id="edge19" class="edge">
<title>Horarios_y_Eventos_func_1&#45;&gt;Horarios_y_Eventos_func_2</title>
<path fill="none" stroke="black" d="M530.21,-143.7C531.65,-135.98 533.37,-126.71 534.96,-118.11"/>
<polygon fill="black" stroke="black" points="538.44,-118.58 536.82,-108.1 531.56,-117.3 538.44,-118.58"/>
</g>
<!-- Horarios_y_Eventos_func_3 -->
<g id="node21" class="node">
<title>Horarios_y_Eventos_func_3</title>
<polygon fill="#ffb800" stroke="black" points="581,-36 499,-36 499,0 581,0 581,-36"/>
<text text-anchor="middle" x="540" y="-15.5" font-family="Helvetica,sans-Serif" font-size="10.00" fill="#002b3d">Días Festivos</text>
</g>
<!-- Horarios_y_Eventos_func_2&#45;&gt;Horarios_y_Eventos_func_3 -->
<g id="edge20" class="edge">
<title>Horarios_y_Eventos_func_2&#45;&gt;Horarios_y_Eventos_func_3</title>
<path fill="none" stroke="black" d="M540,-71.7C540,-63.98 540,-54.71 540,-46.11"/>
<polygon fill="black" stroke="black" points="543.5,-46.1 540,-36.1 536.5,-46.1 543.5,-46.1"/>
</g>
<!-- Servicios_func_0 -->
<g id="node23" class="node">
<title>Servicios_func_0</title>
<polygon fill="#ffb800" stroke="black" points="732.5,-252 601.5,-252 601.5,-216 732.5,-216 732.5,-252"/>
<text text-anchor="middle" x="667" y="-231.5" font-family="Helvetica,sans-Serif" font-size="10.00" fill="#002b3d">Restaurantes y Tiendas</text>
</g>
<!-- Servicios&#45;&gt;Servicios_func_0 -->
<g id="edge22" class="edge">
<title>Servicios&#45;&gt;Servicios_func_0</title>
<path fill="none" stroke="black" d="M659.47,-287.7C660.57,-279.98 661.9,-270.71 663.13,-262.11"/>
<polygon fill="black" stroke="black" points="666.61,-262.5 664.56,-252.1 659.68,-261.51 666.61,-262.5"/>
</g>
<!-- Servicios_func_1 -->
<g id="node24" class="node">
<title>Servicios_func_1</title>
<polygon fill="#ffb800" stroke="black" points="720,-180 610,-180 610,-144 720,-144 720,-180"/>
<text text-anchor="middle" x="665" y="-159.5" font-family="Helvetica,sans-Serif" font-size="10.00" fill="#002b3d">Alquiler de Equipos</text>
</g>
<!-- Servicios_func_0&#45;&gt;Servicios_func_1 -->
<g id="edge23" class="edge">
<title>Servicios_func_0&#45;&gt;Servicios_func_1</title>
<path fill="none" stroke="black" d="M666.51,-215.7C666.29,-207.98 666.02,-198.71 665.77,-190.11"/>
<polygon fill="black" stroke="black" points="669.27,-190 665.49,-180.1 662.28,-190.2 669.27,-190"/>
</g>
<!-- Servicios_func_2 -->
<g id="node25" class="node">
<title>Servicios_func_2</title>
<polygon fill="#ffb800" stroke="black" points="711,-108 613,-108 613,-72 711,-72 711,-108"/>
<text text-anchor="middle" x="662" y="-87.5" font-family="Helvetica,sans-Serif" font-size="10.00" fill="#002b3d">Estacionamiento</text>
</g>
<!-- Servicios_func_1&#45;&gt;Servicios_func_2 -->
<g id="edge24" class="edge">
<title>Servicios_func_1&#45;&gt;Servicios_func_2</title>
<path fill="none" stroke="black" d="M664.26,-143.7C663.93,-135.98 663.53,-126.71 663.16,-118.11"/>
<polygon fill="black" stroke="black" points="666.66,-117.95 662.73,-108.1 659.66,-118.25 666.66,-117.95"/>
</g>
<!-- Servicios_func_3 -->
<g id="node26" class="node">
<title>Servicios_func_3</title>
<polygon fill="#ffb800" stroke="black" points="721.5,-36 602.5,-36 602.5,0 721.5,0 721.5,-36"/>
<text text-anchor="middle" x="662" y="-15.5" font-family="Helvetica,sans-Serif" font-size="10.00" fill="#002b3d">Transporte y Accesos</text>
</g>
<!-- Servicios_func_2&#45;&gt;Servicios_func_3 -->
<g id="edge25" class="edge">
<title>Servicios_func_2&#45;&gt;Servicios_func_3</title>
<path fill="none" stroke="black" d="M662,-71.7C662,-63.98 662,-54.71 662,-46.11"/>
<polygon fill="black" stroke="black" points="665.5,-46.1 662,-36.1 658.5,-46.1 665.5,-46.1"/>
</g>
<!-- Accesibilidad_func_0 -->
<g id="node28" class="node">
<title>Accesibilidad_func_0</title>
<polygon fill="#ffb800" stroke="black" points="877,-252 755,-252 755,-216 877,-216 877,-252"/>
<text text-anchor="middle" x="816" y="-231.5" font-family="Helvetica,sans-Serif" font-size="10.00" fill="#002b3d">Guía de Accesibilidad</text>
</g>
<!-- Accesibilidad&#45;&gt;Accesibilidad_func_0 -->
<g id="edge27" class="edge">
<title>Accesibilidad&#45;&gt;Accesibilidad_func_0</title>
<path fill="none" stroke="black" d="M794.92,-287.7C798.07,-279.81 801.88,-270.3 805.38,-261.55"/>
<polygon fill="black" stroke="black" points="808.69,-262.69 809.16,-252.1 802.19,-260.09 808.69,-262.69"/>
</g>
<!-- Accesibilidad_func_1 -->
<g id="node29" class="node">
<title>Accesibilidad_func_1</title>
<polygon fill="#ffb800" stroke="black" points="876,-180 760,-180 760,-144 876,-144 876,-180"/>
<text text-anchor="middle" x="818" y="-159.5" font-family="Helvetica,sans-Serif" font-size="10.00" fill="#002b3d">Servicios Especiales</text>
</g>
<!-- Accesibilidad_func_0&#45;&gt;Accesibilidad_func_1 -->
<g id="edge28" class="edge">
<title>Accesibilidad_func_0&#45;&gt;Accesibilidad_func_1</title>
<path fill="none" stroke="black" d="M816.49,-215.7C816.71,-207.98 816.98,-198.71 817.23,-190.11"/>
<polygon fill="black" stroke="black" points="820.72,-190.2 817.51,-180.1 813.73,-190 820.72,-190.2"/>
</g>
<!-- Accesibilidad_func_2 -->
<g id="node30" class="node">
<title>Accesibilidad_func_2</title>
<polygon fill="#ffb800" stroke="black" points="910.5,-108 729.5,-108 729.5,-72 910.5,-72 910.5,-108"/>
<text text-anchor="middle" x="820" y="-87.5" font-family="Helvetica,sans-Serif" font-size="10.00" fill="#002b3d">Mapa de Instalaciones Accesibles</text>
</g>
<!-- Accesibilidad_func_1&#45;&gt;Accesibilidad_func_2 -->
<g id="edge29" class="edge">
<title>Accesibilidad_func_1&#45;&gt;Accesibilidad_func_2</title>
<path fill="none" stroke="black" d="M818.49,-143.7C818.71,-135.98 818.98,-126.71 819.23,-118.11"/>
<polygon fill="black" stroke="black" points="822.72,-118.2 819.51,-108.1 815.73,-118 822.72,-118.2"/>
</g>
<!-- Accesibilidad_func_3 -->
<g id="node31" class="node">
<title>Accesibilidad_func_3</title>
<polygon fill="#ffb800" stroke="black" points="873,-36 767,-36 767,0 873,0 873,-36"/>
<text text-anchor="middle" x="820" y="-15.5" font-family="Helvetica,sans-Serif" font-size="10.00" fill="#002b3d">Recomendaciones</text>
</g>
<!-- Accesibilidad_func_2&#45;&gt;Accesibilidad_func_3 -->
<g id="edge30" class="edge">
<title>Accesibilidad_func_2&#45;&gt;Accesibilidad_func_3</title>
<path fill="none" stroke="black" d="M820,-71.7C820,-63.98 820,-54.71 820,-46.11"/>
<polygon fill="black" stroke="black" points="823.5,-46.1 820,-36.1 816.5,-46.1 823.5,-46.1"/>
</g>
<!-- Contacto_y_Soporte_func_0 -->
<g id="node33" class="node">
<title>Contacto_y_Soporte_func_0</title>
<polygon fill="#ffb800" stroke="black" points="1032.5,-252 901.5,-252 901.5,-216 1032.5,-216 1032.5,-252"/>
<text text-anchor="middle" x="967" y="-231.5" font-family="Helvetica,sans-Serif" font-size="10.00" fill="#002b3d">Formulario de Contacto</text>
</g>
<!-- Contacto_y_Soporte&#45;&gt;Contacto_y_Soporte_func_0 -->
<g id="edge32" class="edge">
<title>Contacto_y_Soporte&#45;&gt;Contacto_y_Soporte_func_0</title>
<path fill="none" stroke="black" d="M949.69,-287.7C952.25,-279.9 955.33,-270.51 958.18,-261.83"/>
<polygon fill="black" stroke="black" points="961.58,-262.7 961.38,-252.1 954.93,-260.51 961.58,-262.7"/>
</g>
<!-- Contacto_y_Soporte_func_1 -->
<g id="node34" class="node">
<title>Contacto_y_Soporte_func_1</title>
<polygon fill="#ffb800" stroke="black" points="1022.5,-180 943.5,-180 943.5,-144 1022.5,-144 1022.5,-180"/>
<text text-anchor="middle" x="983" y="-159.5" font-family="Helvetica,sans-Serif" font-size="10.00" fill="#002b3d">Chat en Vivo</text>
</g>
<!-- Contacto_y_Soporte_func_0&#45;&gt;Contacto_y_Soporte_func_1 -->
<g id="edge33" class="edge">
<title>Contacto_y_Soporte_func_0&#45;&gt;Contacto_y_Soporte_func_1</title>
<path fill="none" stroke="black" d="M970.96,-215.7C972.72,-207.98 974.84,-198.71 976.8,-190.11"/>
<polygon fill="black" stroke="black" points="980.27,-190.63 979.09,-180.1 973.45,-189.07 980.27,-190.63"/>
</g>
<!-- Contacto_y_Soporte_func_2 -->
<g id="node35" class="node">
<title>Contacto_y_Soporte_func_2</title>
<polygon fill="#ffb800" stroke="black" points="1051,-108 929,-108 929,-72 1051,-72 1051,-108"/>
<text text-anchor="middle" x="990" y="-87.5" font-family="Helvetica,sans-Serif" font-size="10.00" fill="#002b3d">Preguntas Frecuentes</text>
</g>
<!-- Contacto_y_Soporte_func_1&#45;&gt;Contacto_y_Soporte_func_2 -->
<g id="edge34" class="edge">
<title>Contacto_y_Soporte_func_1&#45;&gt;Contacto_y_Soporte_func_2</title>
<path fill="none" stroke="black" d="M984.73,-143.7C985.5,-135.98 986.43,-126.71 987.29,-118.11"/>
<polygon fill="black" stroke="black" points="990.78,-118.4 988.29,-108.1 983.81,-117.71 990.78,-118.4"/>
</g>
<!-- Contacto_y_Soporte_func_3 -->
<g id="node36" class="node">
<title>Contacto_y_Soporte_func_3</title>
<polygon fill="#ffb800" stroke="black" points="1042,-36 938,-36 938,0 1042,0 1042,-36"/>
<text text-anchor="middle" x="990" y="-15.5" font-family="Helvetica,sans-Serif" font-size="10.00" fill="#002b3d">Ubicación y Mapa</text>
</g>
<!-- Contacto_y_Soporte_func_2&#45;&gt;Contacto_y_Soporte_func_3 -->
<g id="edge35" class="edge">
<title>Contacto_y_Soporte_func_2&#45;&gt;Contacto_y_Soporte_func_3</title>
<path fill="none" stroke="black" d="M990,-71.7C990,-63.98 990,-54.71 990,-46.11"/>
<polygon fill="black" stroke="black" points="993.5,-46.1 990,-36.1 986.5,-46.1 993.5,-46.1"/>
</g>
</g>
</svg>


