<svg id="Layer_1" data-name="Layer 1" xmlns="http://www.w3.org/2000/svg" viewBox="0 0 1232.54 479.4"><defs><style>.cls-1,.cls-5,.cls-9{fill:#002b3d;}.cls-1,.cls-13,.cls-4,.cls-6,.cls-7,.cls-8{stroke:#000;}.cls-2,.cls-5,.cls-9{isolation:isolate;}.cls-2{font-size:14px;fill:#fff;}.cls-2,.cls-5{font-family:Helvetica-Bold, Helvetica;font-weight:700;}.cls-3{letter-spacing:-0.02em;}.cls-4{fill:#39b7e1;}.cls-5{font-size:12px;}.cls-6{fill:none;}.cls-8{fill:#ffb800;}.cls-9{font-size:10px;font-family:Helvetica;}.cls-10{letter-spacing:-0.05em;}.cls-11{letter-spacing:-0.04em;}.cls-12{letter-spacing:-0.04em;}.cls-13{fill:#f9f9f9;}</style></defs><g id="graph0"><g id="node1"><polygon class="cls-1" points="759.04 4 634.04 4 634.04 40 759.04 40 759.04 4"/><text class="cls-2" transform="translate(651.16 25.7)">Xtreme <tspan class="cls-3" x="51.36" y="0">W</tspan><tspan x="64.33" y="0">orld</tspan></text></g><g id="node2"><polygon class="cls-4" points="98.96 82.95 44.96 82.95 44.96 118.95 98.96 118.95 98.96 82.95"/><text class="cls-5" transform="translate(56.29 104.05)">Inicio</text></g><g id="edge1"><path class="cls-6" d="M633.92,31.33C503.85,40,301,55.24,128.52,75.59c-10,1.17-20.32,2.56-30.49,4"/><polygon class="cls-7" points="100.05 82.95 77.5 82.69 95.49 76.36 100.05 82.95"/></g><g id="node7"><polygon class="cls-4" points="391.82 82.95 296.82 82.95 296.82 118.95 391.82 118.95 391.82 82.95"/><text class="cls-5" transform="translate(309.97 104.05)">Atracciones</text></g><g id="edge6"><path class="cls-6" d="M637.41,40l-251.68,39"/><polygon class="cls-7" points="387.04 82.77 365.98 82.13 383.18 75.56 387.04 82.77"/></g><g id="node12"><polygon class="cls-4" points="604.04 82.95 539.04 82.95 539.04 118.95 604.04 118.95 604.04 82.95"/><text class="cls-5" transform="translate(550.97 104.05)"><tspan class="cls-3">T</tspan><tspan x="7.12" y="0">ickets</tspan></text></g><g id="edge11"><path class="cls-6" d="M664,37,597.79,73.62"/><polygon class="cls-7" points="599.96 76.5 586.96 79.61 595.03 71.06 599.96 76.5"/></g><g id="node17"><polygon class="cls-4" points="819.41 82.95 674.41 82.95 674.41 118.95 819.41 118.95 819.41 82.95"/><text class="cls-5" transform="translate(692.23 104.05)">Horarios y Eventos</text></g><g id="edge16"><path class="cls-6" d="M746.91,38.28v32"/><polygon class="cls-7" points="750.41 70.33 746.91 82.86 743.41 70.33 750.41 70.33"/></g><g id="node22"><polygon class="cls-4" points="923.41 82.95 846.41 82.95 846.41 118.95 923.41 118.95 923.41 82.95"/><text class="cls-5" transform="translate(858.23 104.05)">Servicios</text></g><g id="edge21"><path class="cls-6" d="M780.67,47.07l61.26,31.08"/><polygon class="cls-7" points="843.69 75.13 851.02 82.77 840.52 81.36 843.69 75.13"/></g><g id="node32"><polygon class="cls-4" points="1161.62 82.95 1013.62 82.95 1013.62 118.95 1161.62 118.95 1161.62 82.95"/><text class="cls-5" transform="translate(1032.29 104.05)">Contacto y Soporte</text></g><g id="edge31"><path class="cls-6" d="M725.13,38.28c66.21,10.43,173.79,27.56,266.49,43.23l11.85,2"/><polygon class="cls-7" points="1004.22 80.11 1013.48 85.27 1003.03 87.02 1004.22 80.11"/></g><g id="node3"><polygon class="cls-8" points="155.91 152.13 59.91 152.13 59.91 188.13 155.91 188.13 155.91 152.13"/><text class="cls-9" transform="translate(71.22 172.63)">Banner Principal</text></g><g id="node4"><polygon class="cls-8" points="187.91 224.13 59.91 224.13 59.91 260.13 187.91 260.13 187.91 224.13"/><text class="cls-9" transform="translate(72.22 244.63)">Descripción del Parque</text></g><g id="node5"><polygon class="cls-8" points="158.91 296.13 59.91 296.13 59.91 332.13 158.91 332.13 158.91 296.13"/><text class="cls-9" transform="translate(72.74 316.63)">Historia y Misión</text></g><g id="node6"><polygon class="cls-8" points="193.91 368.13 59.91 368.13 59.91 404.13 193.91 404.13 193.91 368.13"/><text class="cls-9" transform="translate(72.99 388.63)">Atracciones Destacadas</text></g><g id="node8"><polygon class="cls-8" points="432.32 155.89 317.32 155.89 317.32 191.89 432.32 191.89 432.32 155.89"/><text class="cls-9" transform="translate(330.07 176.39)">Lista de<tspan class="cls-10" x="35.02" y="0"> </tspan><tspan x="37.26" y="0">Atracciones</tspan></text></g><g id="node9"><polygon class="cls-8" points="466.32 227.89 317.32 227.89 317.32 263.89 466.32 263.89 466.32 227.89"/><text class="cls-9" transform="translate(331.23 248.39)">Actividades y Espectáculos</text></g><g id="node10"><polygon class="cls-8" points="427.32 299.89 317.32 299.89 317.32 335.89 427.32 335.89 427.32 299.89"/><text class="cls-9" transform="translate(330.36 320.39)">Galería Multimedia</text></g><g id="node11"><polygon class="cls-8" points="500.32 371.89 317.32 371.89 317.32 407.89 500.32 407.89 500.32 371.89"/><text class="cls-9" transform="translate(332.11 392.39)">Restricciones y Recomendaciones</text></g><g id="node13"><polygon class="cls-8" points="621.96 155.5 532.96 155.5 532.96 191.5 621.96 191.5 621.96 155.5"/><text class="cls-9" transform="translate(543.83 176)">Compra Online</text></g><g id="node14"><polygon class="cls-8" points="640.96 227.5 532.96 227.5 532.96 263.5 640.96 263.5 640.96 227.5"/><text class="cls-9" transform="translate(543.88 248)">Precios y Paquetes</text></g><g id="node15"><polygon class="cls-8" points="681.96 300.34 532.96 300.34 532.96 336.34 681.96 336.34 681.96 300.34"/><text class="cls-9" transform="translate(546.59 320.84)">Promociones y Descuentos</text></g><g id="node16"><polygon class="cls-8" points="632.96 371.5 532.96 371.5 532.96 407.5 632.96 407.5 632.96 371.5"/><text class="cls-9" transform="translate(543.76 392)">Métodos de Pago</text></g><g id="node18"><polygon class="cls-8" points="834.14 156.24 705.14 156.24 705.14 192.24 834.14 192.24 834.14 156.24"/><text class="cls-9" transform="translate(718.22 176.74)">Calendario de<tspan class="cls-10" x="62.27" y="0"> </tspan><tspan x="64.5" y="0">Apertura</tspan></text></g><g id="node19"><polygon class="cls-8" points="818.14 228.24 705.14 228.24 705.14 264.24 818.14 264.24 818.14 228.24"/><text class="cls-9" transform="translate(717.73 248.74)">Horarios Detallados</text></g><g id="node20"><polygon class="cls-8" points="815.14 300.24 705.14 300.24 705.14 336.24 815.14 336.24 815.14 300.24"/><text class="cls-9" transform="translate(716.51 320.74)">Eventos Especiales</text></g><g id="node21"><polygon class="cls-8" points="787.14 372.24 705.14 372.24 705.14 408.24 787.14 408.24 787.14 372.24"/><text class="cls-9" transform="translate(715.86 392.74)">Días Festivos</text></g><g id="node23"><polygon class="cls-8" points="1002.43 156.24 871.43 156.24 871.43 192.24 1002.43 192.24 1002.43 156.24"/><text class="cls-9" transform="translate(884.4 176.74)">Restaurantes y<tspan class="cls-3" x="67.26" y="0"> </tspan><tspan class="cls-11" x="69.86" y="0">T</tspan><tspan x="75.6" y="0">iendas</tspan></text></g><g id="node24"><polygon class="cls-8" points="992.54 228.24 871.43 228.24 871.43 264.24 992.54 264.24 992.54 228.24"/><text class="cls-9" transform="translate(883.7 248.74) scale(1.03 1)"><tspan class="cls-12">T</tspan><tspan x="5.74" y="0">iendas de Recuerdos</tspan></text></g><g id="node25"><polygon class="cls-8" points="969.43 300.24 871.43 300.24 871.43 336.24 969.43 336.24 969.43 300.24"/><text class="cls-9" transform="translate(883.47 320.74)">Estacionamiento</text></g><g id="node26"><polygon class="cls-8" points="988.93 372.24 869.93 372.24 869.93 408.24 988.93 408.24 988.93 372.24"/><text class="cls-9" transform="translate(881.53 392.74)"><tspan class="cls-11">T</tspan><tspan x="5.74" y="0">ransporte y</tspan><tspan class="cls-10" x="55.77" y="0"> </tspan><tspan x="58" y="0">Accesos</tspan></text></g><g id="node28"><polygon class="cls-8" points="991.93 425.64 869.93 425.64 869.93 461.64 991.93 461.64 991.93 425.64"/><text class="cls-9" transform="translate(882.84 446.14)">Guía de<tspan class="cls-10" x="35.58" y="0"> </tspan><tspan x="37.81" y="0">Accesibilidad</tspan></text></g><g id="node33"><polygon class="cls-8" points="1176.12 153.51 1045.12 153.51 1045.12 189.51 1176.12 189.51 1176.12 153.51"/><text class="cls-9" transform="translate(1058.38 174.01)">Formulario de Contacto</text></g><g id="node34"><polygon class="cls-8" points="1176.12 292.84 1045.12 292.84 1045.12 328.84 1176.12 328.84 1176.12 292.84"/><text class="cls-9" transform="translate(1056.08 313.34)">Otras formas de contacto</text></g><g id="node35"><polygon class="cls-8" points="1167.12 222.78 1045.12 222.78 1045.12 258.79 1167.12 258.79 1167.12 222.78"/><text class="cls-9" transform="translate(1056.93 243.29)">Preguntas Frecuentes</text></g><polyline class="cls-6" points="860.93 118.95 860.93 118.95 860.93 139.56 860.93 318.24 860.93 394.88 868.43 394.88 871.43 394.88"/><line class="cls-6" x1="871.43" y1="318.24" x2="860.93" y2="318.24"/><line class="cls-6" x1="871.43" y1="246.24" x2="860.93" y2="246.24"/><line class="cls-6" x1="871.43" y1="174.24" x2="860.93" y2="174.24"/><polyline class="cls-6" points="860.93 394.88 860.93 445.14 869.93 445.14"/><polyline class="cls-13" points="1045.12 310.84 1022.23 310.84 1022.23 171.51 1022.23 117.52"/><line class="cls-13" x1="1045.12" y1="171.51" x2="1022.23" y2="171.51"/><line class="cls-13" x1="1045.12" y1="240.79" x2="1022.23" y2="240.79"/><polyline class="cls-13" points="704.79 393.67 693.14 393.6 693.14 119.25"/><line class="cls-13" x1="704.79" y1="319.45" x2="693.14" y2="320.74"/><line class="cls-13" x1="705.14" y1="247.45" x2="693.14" y2="247.45"/><line class="cls-13" x1="705.14" y1="174.24" x2="693.14" y2="174.24"/><polyline class="cls-6" points="532.96 398.95 515.24 398.95 515.24 129.34 566.83 129.34 566.83 118.95"/><polyline class="cls-6" points="317.32 392 301.99 392 301.99 119.25"/><line class="cls-6" x1="317.32" y1="174.71" x2="301.99" y2="174.71"/></g><line class="cls-6" x1="532.96" y1="173.5" x2="515.24" y2="174.01"/><line class="cls-6" x1="532.96" y1="246.24" x2="515.24" y2="245.5"/><line class="cls-6" x1="532.96" y1="320.1" x2="515.24" y2="320.1"/><line class="cls-6" x1="317.32" y1="244.63" x2="301.99" y2="244.63"/><line class="cls-6" x1="317.32" y1="319.45" x2="301.99" y2="320.1"/><polyline class="cls-6" points="59.91 386.13 44.96 386.13 44.96 116.19"/><line class="cls-6" x1="59.91" y1="168.63" x2="44.96" y2="168.63"/><line class="cls-6" x1="59.91" y1="314.13" x2="45.55" y2="314.13"/><line class="cls-6" x1="59.91" y1="242.13" x2="45.55" y2="242.13"/></svg>